<svg xmlns="http://www.w3.org/2000/svg" width="30" height="30" viewBox="0 0 30 30">
  <g id="close" transform="translate(0 -0.36)">
    <path id="Path_4" data-name="Path 4" d="M29.228,24.642,5.72,1.129a2.623,2.623,0,0,0-3.711,0L.769,2.366a2.624,2.624,0,0,0,0,3.712L24.278,29.591a2.623,2.623,0,0,0,3.712,0l1.237-1.237a2.622,2.622,0,0,0,0-3.712Zm0,0" transform="translate(0)" fill="#f44336"/>
    <path id="Path_5" data-name="Path 5" d="M24.28,1.131.769,24.641a2.624,2.624,0,0,0,0,3.712L2.006,29.59a2.624,2.624,0,0,0,3.712,0L29.231,6.081a2.623,2.623,0,0,0,0-3.712L27.994,1.133a2.624,2.624,0,0,0-3.713,0Zm0,0" transform="translate(0 0)" fill="#f44336"/>
  </g>
</svg>
