<svg xmlns="http://www.w3.org/2000/svg" width="50.978" height="31" viewBox="0 0 50.978 31">
  <g id="eye-with-thick-outline-variant" transform="translate(0 -16.348)">
    <path id="Path_25" data-name="Path 25" d="M50.3,30.673a28.646,28.646,0,0,0-49.618,0L0,31.848l.68,1.176a28.646,28.646,0,0,0,49.618,0l.68-1.176ZM25.744,40.182a9.094,9.094,0,1,1,9.094-9.094A9.1,9.1,0,0,1,25.744,40.182ZM5.469,31.848a24.042,24.042,0,0,1,8.44-7.8,13.693,13.693,0,0,0,1.845,16.512A24.092,24.092,0,0,1,5.469,31.848ZM36.12,40.137a13.735,13.735,0,0,0,1.737-15.63,24,24,0,0,1,7.651,7.34A24.042,24.042,0,0,1,36.12,40.137Zm-6.8-9.228a3.833,3.833,0,1,1-3.832-3.833A3.833,3.833,0,0,1,29.322,30.909Z"/>
  </g>
</svg>
