<svg xmlns="http://www.w3.org/2000/svg" width="27.883" height="26.721" viewBox="0 0 27.883 26.721">
  <g id="inbox" transform="translate(0 -10.667)">
    <g id="Group_27" data-name="Group 27" transform="translate(0 10.667)">
      <path id="Path_13" data-name="Path 13" d="M27.848,25.489,24.8,13.3v0a3.481,3.481,0,0,0-3.38-2.633H6.46A3.481,3.481,0,0,0,3.08,13.3L.036,25.489A1.092,1.092,0,0,0,0,25.77V33.9a3.49,3.49,0,0,0,3.485,3.485H24.4A3.49,3.49,0,0,0,27.883,33.9V25.77A1.143,1.143,0,0,0,27.848,25.489ZM5.333,13.867a1.16,1.16,0,0,1,1.127-.876H21.423a1.161,1.161,0,0,1,1.126.875l1.665,6.665H18.588a1.162,1.162,0,0,0-1.162,1.162,3.485,3.485,0,1,1-6.971,0A1.162,1.162,0,0,0,9.294,20.53H3.668ZM25.559,33.9A1.164,1.164,0,0,1,24.4,35.064H3.485A1.164,1.164,0,0,1,2.324,33.9v-7.99l.764-3.059H8.25a5.809,5.809,0,0,0,11.383,0h5.162l.764,3.059V33.9Z" transform="translate(0 -10.667)" fill="#fff"/>
    </g>
  </g>
</svg>
