<svg xmlns="http://www.w3.org/2000/svg" width="30.846" height="34.051" viewBox="0 0 30.846 34.051">
  <g id="megaphone" transform="translate(-24.1)">
    <path id="Path_19" data-name="Path 19" d="M379.269,52.041l2.137-2.137a1,1,0,0,0-1.411-1.411l-2.137,2.137a1,1,0,0,0,1.411,1.411Z" transform="translate(-329.957 -44.995)" fill="#fff"/>
    <path id="Path_20" data-name="Path 20" d="M37.557,48.493a1,1,0,0,0-1.608.281L27.475,66.781l-3.083,3.083a1,1,0,0,0,0,1.411l4.274,4.274a1,1,0,0,0,1.411,0l2.5-2.5,5.706,5.706a1,1,0,0,0,1.411,0l3.74-3.74a1,1,0,0,0,0-1.411l-4.061-4.061,11.795-5.55a1,1,0,0,0,.281-1.608ZM29.372,73.432l-2.863-2.863L28.3,68.774l2.863,2.863Zm11.946.877-2.329,2.329-4.7-4.7,3.168-1.491Zm-8.531-3.873L29.5,67.154,37.15,50.907,49.034,62.791Z" transform="translate(0 -44.995)" fill="#fff"/>
    <path id="Path_21" data-name="Path 21" d="M428.9,176.733h-2.137a1,1,0,0,0,0,2H428.9a1,1,0,1,0,0-2Z" transform="translate(-374.952 -164.979)" fill="#fff"/>
    <path id="Path_22" data-name="Path 22" d="M282.164,4.132a1,1,0,0,0,1-1V1a1,1,0,0,0-2,0V3.135A1,1,0,0,0,282.164,4.132Z" transform="translate(-239.969)" fill="#fff"/>
  </g>
</svg>
