<svg xmlns="http://www.w3.org/2000/svg" width="39" height="50.216" viewBox="0 0 39 50.216">
  <g id="password_1_" data-name="password (1)" transform="translate(-3)">
    <path id="Path_9" data-name="Path 9" d="M37.125,40.385H7.875A4.8,4.8,0,0,1,3,35.677V13.708A4.8,4.8,0,0,1,7.875,9h29.25A4.8,4.8,0,0,1,42,13.708V35.677A4.8,4.8,0,0,1,37.125,40.385ZM7.875,12.138A1.6,1.6,0,0,0,6.25,13.708V35.677a1.6,1.6,0,0,0,1.625,1.569h29.25a1.6,1.6,0,0,0,1.625-1.569V13.708a1.6,1.6,0,0,0-1.625-1.569Z" transform="translate(0 9.831)" fill="#c2c7db"/>
    <path id="Path_10" data-name="Path 10" d="M30.793,21.969A1.613,1.613,0,0,1,29.14,20.4V12.554a9.688,9.688,0,0,0-9.917-9.415,9.688,9.688,0,0,0-9.917,9.415V20.4a1.613,1.613,0,0,1-1.653,1.569A1.613,1.613,0,0,1,6,20.4V12.554C6,5.63,11.931,0,19.223,0S32.446,5.63,32.446,12.554V20.4A1.613,1.613,0,0,1,30.793,21.969Z" transform="translate(3.277)" fill="#c2c7db"/>
    <path id="Path_11" data-name="Path 11" d="M14.185,21.369a4.185,4.185,0,1,1,4.185-4.185A4.189,4.189,0,0,1,14.185,21.369Zm0-5.231a1.046,1.046,0,1,0,1.046,1.046A1.048,1.048,0,0,0,14.185,16.138Z" transform="translate(8.315 14.2)" fill="#c2c7db"/>
    <path id="Path_12" data-name="Path 12" d="M12.819,24.642a1.57,1.57,0,0,1-1.569-1.569V17.319a1.569,1.569,0,1,1,3.138,0v5.754A1.57,1.57,0,0,1,12.819,24.642Z" transform="translate(9.681 17.204)" fill="#c2c7db"/>
  </g>
</svg>
