<svg xmlns="http://www.w3.org/2000/svg" width="34.485" height="34.485" viewBox="0 0 34.485 34.485">
  <path id="pen" d="M24.677,1.093a3.839,3.839,0,0,0-5.425,0L17.894,2.459,3.439,16.908l-.031.031c-.007.007-.007.015-.015.015-.015.023-.038.046-.054.069,0,.008-.008.008-.008.015-.015.023-.023.038-.038.061-.007.008-.007.015-.015.023-.008.023-.015.038-.023.061,0,.007-.007.007-.007.015L.04,26.845a.755.755,0,0,0,.184.783.772.772,0,0,0,.545.223.906.906,0,0,0,.246-.038L10.651,24.6c.007,0,.007,0,.015-.007a.278.278,0,0,0,.069-.031.027.027,0,0,0,.016-.007c.023-.015.054-.031.077-.046s.046-.038.069-.054c.008-.008.015-.008.015-.015s.023-.015.031-.031L26.757,8.59a3.84,3.84,0,0,0,0-5.425Zm-14.272,21.7-5.34-5.341L18.432,4.086l5.34,5.341ZM4.313,18.873l4.665,4.666L1.973,25.871ZM25.675,7.516l-.813.821L19.521,3l.821-.821a2.3,2.3,0,0,1,3.253,0l2.087,2.087a2.309,2.309,0,0,1-.007,3.254Zm0,0" transform="translate(0.009 7.713) rotate(-16)"/>
</svg>
