<svg xmlns="http://www.w3.org/2000/svg" width="45.068" height="44.994" viewBox="0 0 45.068 44.994">
  <g id="phone-call" transform="translate(4.985 45.529) rotate(-97)">
    <g id="Group_31" data-name="Group 31" transform="translate(0.539 0)">
      <path id="Path_26" data-name="Path 26" d="M39.846,29.686,34.2,24.041a3.755,3.755,0,0,0-6.25,1.411,3.842,3.842,0,0,1-4.435,2.419c-4.032-1.008-9.475-6.25-10.483-10.483a3.654,3.654,0,0,1,2.419-4.435A3.755,3.755,0,0,0,16.863,6.7L11.218,1.058a4.027,4.027,0,0,0-5.443,0L1.944,4.889c-3.831,4.032.4,14.717,9.879,24.193S31.983,42.992,36.015,38.96l3.831-3.831A4.026,4.026,0,0,0,39.846,29.686Z" transform="translate(-0.539 0)"/>
    </g>
  </g>
</svg>
