<svg xmlns="http://www.w3.org/2000/svg" width="28.039" height="31" viewBox="0 0 28.039 31">
  <g id="trash-bin-closed_1_" data-name="trash-bin-closed (1)" transform="translate(-3.062)">
    <path id="Path_27" data-name="Path 27" d="M28.764,4.411h-6.3V2.338A2.34,2.34,0,0,0,20.123,0H14.041A2.34,2.34,0,0,0,11.7,2.338V4.411H5.4A2.34,2.34,0,0,0,3.062,6.749v3.04a.967.967,0,0,0,.967.967H6.567V28.663A2.34,2.34,0,0,0,8.9,31H25.621a2.34,2.34,0,0,0,2.337-2.337V10.756h2.175a.967.967,0,0,0,.967-.967V6.749A2.34,2.34,0,0,0,28.764,4.411ZM13.638,2.338a.4.4,0,0,1,.4-.4h6.082a.4.4,0,0,1,.4.4V4.411H13.637V2.338ZM26.025,28.663a.4.4,0,0,1-.4.4H8.9a.4.4,0,0,1-.4-.4V10.756H26.025Zm3.142-19.84H5V6.749a.4.4,0,0,1,.4-.4H28.764a.4.4,0,0,1,.4.4Z" fill="#fff"/>
  </g>
</svg>
