<?xml version="1.0" standalone="no"?><svg xmlns="http://www.w3.org/2000/svg" viewBox="0 0 1440 320"><path fill="#F44336" fill-opacity="1" d="M0,288L21.8,293.3C43.6,299,87,309,131,304C174.5,299,218,277,262,256C305.5,235,349,213,393,208C436.4,203,480,213,524,192C567.3,171,611,117,655,117.3C698.2,117,742,171,785,202.7C829.1,235,873,245,916,229.3C960,213,1004,171,1047,154.7C1090.9,139,1135,149,1178,176C1221.8,203,1265,245,1309,240C1352.7,235,1396,181,1418,154.7L1440,128L1440,0L1418.2,0C1396.4,0,1353,0,1309,0C1265.5,0,1222,0,1178,0C1134.5,0,1091,0,1047,0C1003.6,0,960,0,916,0C872.7,0,829,0,785,0C741.8,0,698,0,655,0C610.9,0,567,0,524,0C480,0,436,0,393,0C349.1,0,305,0,262,0C218.2,0,175,0,131,0C87.3,0,44,0,22,0L0,0Z"></path></svg>